<?xml version="1.0" standalone="no"?><!DOCTYPE svg PUBLIC "-//W3C//DTD SVG 1.1//EN" "http://www.w3.org/Graphics/SVG/1.1/DTD/svg11.dtd"><svg height="1024" node-id="1" sillyvg="true" template-height="1024" template-width="1024" version="1.1" viewBox="0 0 1024 1024" width="1024" xmlns="http://www.w3.org/2000/svg" xmlns:xlink="http://www.w3.org/1999/xlink"><defs node-id="99"></defs><path d="M 993.50 914.20 L 993.20 915.10 L 992.00 916.10 L 989.30 917.40 L 984.10 919.00 L 968.80 921.90 L 956.60 923.50 L 937.40 925.60 L 912.00 927.70 L 851.40 931.40 L 793.10 933.90 L 728.30 935.90 L 658.40 937.30 L 584.60 938.20 L 508.20 938.50 L 431.80 938.20 L 358.00 937.30 L 254.60 935.00 L 165.00 931.40 L 104.40 927.70 L 79.00 925.60 L 59.80 923.50 L 47.60 921.90 L 32.30 919.00 L 27.10 917.40 L 24.40 916.10 L 23.20 915.10 L 22.90 914.20 L 23.20 913.30 L 24.40 912.20 L 27.10 911.00 L 32.30 909.40 L 47.60 906.50 L 59.80 904.90 L 79.00 902.80 L 104.40 900.70 L 165.00 897.00 L 254.60 893.40 L 358.00 891.00 L 431.80 890.10 L 508.20 889.80 L 584.60 890.10 L 658.40 891.00 L 761.80 893.40 L 851.40 897.00 L 912.00 900.70 L 937.40 902.80 L 956.60 904.90 L 968.80 906.50 L 984.10 909.40 L 989.30 911.00 L 992.00 912.20 L 993.20 913.30 L 993.50 914.20 Z" fill="#d7e4f9" fill-rule="nonzero" node-id="101" stroke="none" target-height="48.700012" target-width="970.6" target-x="22.9" target-y="889.8"></path><path d="M 747.50 123.50 L 932.80 123.50 L 932.80 246.70 L 747.50 246.70 Z" fill="#ffb31a" fill-rule="nonzero" node-id="103" stroke="none" target-height="123.2" target-width="185.29999" target-x="747.5" target-y="123.5"></path><path d="M 747.50 123.50 L 840.20 200.90 L 932.80 123.50 L 932.80 246.70 L 747.50 246.70 L 747.50 123.50 Z" fill="#ff8f18" fill-rule="nonzero" node-id="105" stroke="none" target-height="123.2" target-width="185.29999" target-x="747.5" target-y="123.5"></path><path d="M 726.90 124.60 L 727.10 127.60 L 728.70 133.10 L 729.90 135.60 L 732.10 138.60 L 734.70 141.20 L 737.80 143.30 L 740.30 144.60 L 745.80 146.00 L 748.80 146.20 L 751.80 146.00 L 757.30 144.50 L 759.80 143.20 L 762.90 141.00 L 765.40 138.40 L 767.60 135.40 L 768.90 132.90 L 770.30 127.40 L 770.50 124.40 L 770.30 121.40 L 768.80 115.90 L 767.50 113.40 L 765.40 110.30 L 762.80 107.70 L 759.70 105.60 L 757.20 104.30 L 751.70 102.80 L 748.70 102.60 L 745.70 102.80 L 740.20 104.30 L 737.70 105.60 L 734.60 107.80 L 732.00 110.40 L 729.80 113.50 L 728.60 116.00 L 727.10 121.60 L 726.90 124.60 Z" fill="#4c6ef4" fill-rule="nonzero" node-id="107" stroke="none" target-height="43.6" target-width="43.599976" target-x="726.9" target-y="102.6"></path><path d="M 746.30 119.20 L 742.20 121.20 L 741.40 117.40 L 747.10 114.80 L 751.20 114.80 L 751.20 136.30 L 746.30 136.30 Z" fill="#ffffff" fill-rule="nonzero" node-id="109" stroke="none" target-height="21.5" target-width="9.799988" target-x="741.4" target-y="114.8"></path><g node-id="321"><path d="M 343.70 773.70 L 353.60 766.80 L 371.40 792.40 L 361.50 799.30 Z" fill="#adbedf" fill-rule="nonzero" group-id="1" node-id="113" stroke="none" target-height="32.5" target-width="27.699982" target-x="343.7" target-y="766.8"></path></g><g node-id="322"><path d="M 324.30 782.20 L 363.60 755.10 L 369.70 763.90 L 330.30 791.00 Z" fill="#adbedf" fill-rule="nonzero" group-id="2" node-id="118" stroke="none" target-height="35.900024" target-width="45.400024" target-x="324.3" target-y="755.1"></path></g><g node-id="323"><path d="M 534.30 795.00 L 552.00 769.30 L 561.90 776.20 L 544.20 801.90 Z" fill="#adbedf" fill-rule="nonzero" group-id="3" node-id="123" stroke="none" target-height="32.600037" target-width="27.600037" target-x="534.3" target-y="769.3"></path></g><g node-id="324"><path d="M 535.20 762.90 L 541.30 754.00 L 580.60 781.10 L 574.50 789.90 Z" fill="#adbedf" fill-rule="nonzero" group-id="4" node-id="128" stroke="none" target-height="35.900024" target-width="45.399963" target-x="535.2" target-y="754"></path></g><path d="M 452.10 761.70 L 442.70 762.00 L 433.60 763.00 L 424.80 764.50 L 416.10 766.50 L 407.60 769.20 L 399.40 772.40 L 391.50 776.00 L 383.90 780.20 L 376.50 784.80 L 369.50 789.90 L 362.90 795.40 L 356.50 801.30 L 350.60 807.60 L 345.10 814.30 L 340.10 821.30 L 335.40 828.70 L 331.30 836.30 L 327.60 844.20 L 324.50 852.40 L 321.80 861.00 L 319.70 869.60 L 318.20 878.40 L 317.30 887.50 L 317.00 896.90 L 317.60 909.90 L 586.50 909.90 L 587.10 896.90 L 586.80 887.90 L 586.00 879.10 L 584.50 870.40 L 582.50 861.80 L 580.00 853.40 L 576.90 845.20 L 573.30 837.20 L 569.10 829.40 L 564.50 821.90 L 559.40 814.70 L 553.70 807.90 L 547.60 801.30 L 541.00 795.20 L 534.20 789.50 L 527.00 784.40 L 519.50 779.80 L 511.80 775.60 L 503.80 772.00 L 495.60 768.90 L 487.10 766.30 L 478.60 764.30 L 469.90 762.90 L 461.00 762.00 L 452.10 761.70 Z" fill="#d3e2f3" fill-rule="nonzero" node-id="131" stroke="none" target-height="148.20001" target-width="270.09998" target-x="317" target-y="761.7"></path><path d="M 452.10 772.90 L 443.50 773.20 L 435.10 774.00 L 427.00 775.40 L 419.10 777.30 L 411.30 779.80 L 403.80 782.70 L 396.50 786.00 L 389.50 789.80 L 382.70 794.10 L 376.30 798.80 L 370.20 803.80 L 364.40 809.20 L 359.00 815.00 L 354.00 821.10 L 349.30 827.60 L 345.00 834.30 L 341.20 841.30 L 337.90 848.60 L 335.00 856.10 L 332.60 863.90 L 330.70 871.90 L 329.30 880.00 L 328.40 888.30 L 328.10 896.90 L 328.80 909.90 L 575.30 909.90 L 576.00 896.90 L 575.70 888.70 L 574.90 880.60 L 573.60 872.60 L 571.70 864.70 L 569.40 857.00 L 566.60 849.40 L 563.20 842.10 L 559.40 835.00 L 555.20 828.10 L 550.50 821.50 L 545.30 815.20 L 539.70 809.20 L 533.70 803.60 L 527.40 798.40 L 520.80 793.70 L 514.00 789.50 L 506.80 785.60 L 499.50 782.30 L 492.00 779.50 L 484.20 777.10 L 476.40 775.30 L 468.40 774.00 L 460.30 773.20 L 452.10 772.90 Z" fill="#adbedf" fill-rule="nonzero" node-id="133" stroke="none" target-height="137" target-width="247.9" target-x="328.1" target-y="772.9"></path><path d="M 537.80 896.90 L 537.60 890.80 L 537.00 884.90 L 535.90 879.10 L 532.70 867.80 L 528.10 857.20 L 525.20 852.10 L 518.50 842.70 L 514.60 838.30 L 510.50 834.10 L 506.10 830.30 L 501.40 826.80 L 496.40 823.50 L 491.10 820.60 L 485.60 818.00 L 480.10 815.90 L 474.50 814.10 L 468.80 812.80 L 457.20 811.30 L 451.40 811.20 L 439.80 812.00 L 428.40 814.50 L 422.80 816.30 L 417.40 818.50 L 412.10 821.00 L 407.00 824.00 L 401.90 827.40 L 397.20 831.10 L 392.70 835.00 L 388.60 839.30 L 384.80 843.70 L 381.40 848.50 L 375.50 858.50 L 371.00 869.20 L 369.30 874.70 L 367.00 886.20 L 366.50 892.00 L 366.40 897.90 L 366.70 903.90 L 367.40 909.90 L 536.80 909.90 L 537.50 903.40 L 537.80 896.90 Z" fill="#ffffff" fill-rule="nonzero" node-id="135" stroke="none" target-height="98.70001" target-width="171.4" target-x="366.4" target-y="811.2"></path><path d="M 471.60 896.90 L 471.40 894.00 L 470.90 891.20 L 469.90 888.60 L 466.90 884.00 L 462.70 880.30 L 460.30 879.00 L 457.50 878.00 L 454.70 877.40 L 451.90 877.20 L 446.40 878.00 L 441.40 880.40 L 439.20 882.00 L 437.20 884.00 L 435.50 886.40 L 434.10 888.90 L 432.70 894.30 L 432.50 897.10 L 433.40 902.50 L 434.40 905.10 L 435.80 907.60 L 437.50 909.90 L 466.60 909.90 L 468.10 908.00 L 470.30 903.80 L 471.50 899.30 L 471.60 896.90 Z" fill="#5587eb" fill-rule="nonzero" node-id="137" stroke="none" target-height="32.700012" target-width="39.100006" target-x="432.5" target-y="877.2"></path><g node-id="325"><path d="M 450.50 895.60 L 499.90 846.20 L 500.90 845.50 L 503.00 845.50 L 503.90 846.10 L 504.50 847.10 L 504.70 848.10 L 504.50 849.20 L 503.90 850.10 L 454.50 899.50 L 453.60 900.10 L 452.50 900.30 L 451.50 900.10 L 450.50 899.50 L 449.90 898.60 L 449.70 897.60 L 449.90 896.50 L 450.50 895.60 Z" fill="#3165cc" fill-rule="nonzero" group-id="5" node-id="141" stroke="none" target-height="54.799988" target-width="55" target-x="449.7" target-y="845.5"></path></g><path d="M 452.10 775.90 L 453.30 776.20 L 454.20 776.80 L 454.80 777.70 L 455.10 778.90 L 455.10 795.00 L 454.80 796.20 L 454.20 797.10 L 453.30 797.80 L 452.10 798.00 L 450.90 797.80 L 450.00 797.10 L 449.30 796.20 L 449.10 795.00 L 449.10 778.90 L 449.30 777.80 L 450.00 776.80 L 450.90 776.20 L 452.10 775.90 Z" fill="#d3e2f3" fill-rule="nonzero" node-id="144" stroke="none" target-height="22.099976" target-width="6" target-x="449.1" target-y="775.9"></path><path d="M 522.40 823.30 L 533.80 812.00 L 534.80 811.30 L 535.90 811.10 L 537.10 811.30 L 538.10 812.00 L 538.70 813.00 L 539.00 814.10 L 538.70 815.30 L 538.10 816.30 L 526.70 827.60 L 525.70 828.30 L 524.60 828.50 L 523.40 828.30 L 522.40 827.60 L 521.80 826.60 L 521.50 825.50 L 521.80 824.30 L 522.40 823.30 Z" fill="#d3e2f3" fill-rule="nonzero" node-id="146" stroke="none" target-height="17.400024" target-width="17.5" target-x="521.5" target-y="811.1"></path><path d="M 554.30 895.20 L 570.40 895.20 L 571.60 895.50 L 572.50 896.10 L 573.20 897.10 L 573.40 898.20 L 573.20 899.40 L 572.50 900.40 L 571.60 901.00 L 570.40 901.20 L 554.30 901.20 L 553.20 901.00 L 552.20 900.40 L 551.60 899.40 L 551.30 898.20 L 551.60 897.10 L 552.20 896.10 L 553.20 895.50 L 554.30 895.20 Z" fill="#d3e2f3" fill-rule="nonzero" node-id="148" stroke="none" target-height="6" target-width="22.100037" target-x="551.3" target-y="895.2"></path><g node-id="326"><path d="M 365.80 811.30 L 366.80 810.70 L 367.90 810.40 L 369.10 810.70 L 370.10 811.30 L 381.50 822.70 L 382.10 823.70 L 382.30 824.80 L 382.10 826.00 L 381.50 827.00 L 380.50 827.60 L 379.30 827.90 L 378.20 827.60 L 377.20 827.00 L 365.80 815.60 L 365.10 814.60 L 364.90 813.50 L 365.10 812.30 L 365.80 811.30 Z" fill="#d3e2f3" fill-rule="nonzero" group-id="6" node-id="152" stroke="none" target-height="17.5" target-width="17.399994" target-x="364.9" target-y="810.4"></path></g><path d="M 332.80 894.30 L 348.90 894.30 L 350.10 894.50 L 351.00 895.20 L 351.70 896.10 L 351.90 897.30 L 351.70 898.50 L 351.00 899.40 L 350.10 900.10 L 348.90 900.30 L 332.80 900.30 L 331.70 900.10 L 330.70 899.40 L 330.10 898.50 L 329.80 897.30 L 330.10 896.10 L 330.70 895.20 L 331.70 894.50 L 332.80 894.30 Z" fill="#d3e2f3" fill-rule="nonzero" node-id="155" stroke="none" target-height="6" target-width="22.100006" target-x="329.8" target-y="894.3"></path><path d="M 86.50 187.70 L 406.40 187.70 L 406.40 405.10 L 86.50 405.10 Z" fill="#e0eaff" fill-rule="nonzero" node-id="157" stroke="none" target-height="217.40001" target-width="319.9" target-x="86.5" target-y="187.7"></path><path d="M 86.50 187.70 L 406.40 187.70 L 406.40 216.40 L 86.50 216.40 Z" fill="#314992" fill-rule="nonzero" node-id="159" stroke="none" target-height="28.699997" target-width="319.9" target-x="86.5" target-y="187.7"></path><path d="M 157.90 270.30 L 157.70 273.20 L 156.30 278.60 L 153.40 283.60 L 151.50 285.70 L 149.30 287.70 L 144.40 290.50 L 138.90 292.00 L 136.00 292.20 L 133.00 291.90 L 127.50 290.40 L 125.00 289.20 L 121.90 287.00 L 119.30 284.40 L 117.10 281.30 L 115.90 278.80 L 114.40 273.30 L 114.20 270.30 L 114.40 267.20 L 115.90 261.70 L 117.10 259.20 L 119.30 256.20 L 121.90 253.60 L 125.00 251.40 L 127.50 250.10 L 133.00 248.60 L 136.00 248.40 L 138.90 248.60 L 144.40 250.10 L 149.30 252.90 L 151.50 254.80 L 153.40 257.00 L 156.30 261.90 L 157.70 267.40 L 157.90 270.30 Z" fill="#ffffff" fill-rule="nonzero" node-id="161" stroke="none" target-height="43.80002" target-width="43.699997" target-x="114.2" target-y="248.4"></path><path d="M 368.30 265.60 L 181.90 265.60 L 179.30 264.80 L 178.20 263.80 L 176.90 261.20 L 176.70 259.50 L 176.90 257.80 L 178.20 255.10 L 179.30 254.20 L 181.90 253.30 L 368.40 253.30 L 371.00 254.20 L 372.10 255.10 L 373.40 257.80 L 373.60 259.50 L 373.40 261.20 L 372.00 263.80 L 371.00 264.80 L 369.70 265.40 L 368.30 265.60 Z" fill="#ffffff" fill-rule="nonzero" node-id="163" stroke="none" target-height="12.300003" target-width="196.90001" target-x="176.7" target-y="253.3"></path><path d="M 266.00 286.10 L 181.70 286.10 L 180.30 286.00 L 178.20 284.90 L 177.40 284.10 L 176.70 282.00 L 177.40 280.00 L 178.20 279.10 L 179.70 278.30 L 181.70 277.90 L 266.00 277.90 L 267.40 278.10 L 269.50 279.10 L 270.30 280.00 L 271.00 282.00 L 270.30 284.10 L 269.50 284.90 L 267.40 286.00 L 266.00 286.10 Z" fill="#ffffff" fill-rule="nonzero" node-id="165" stroke="none" target-height="8.200012" target-width="94.3" target-x="176.7" target-y="277.9"></path><path d="M 189.50 356.40 L 118.80 356.40 L 118.80 310.30 L 189.50 310.30 Z M 119.80 355.40 L 188.50 355.40 L 188.50 311.30 L 119.80 311.30 Z" fill="#ffffff" fill-rule="nonzero" node-id="167" stroke="none" target-height="46.100006" target-width="70.7" target-x="118.8" target-y="310.3"></path><path d="M 382.30 356.40 L 209.00 356.40 L 209.00 310.30 L 382.30 310.30 Z M 210.00 355.40 L 381.30 355.40 L 381.30 311.30 L 210.00 311.30 Z" fill="#ffffff" fill-rule="nonzero" node-id="169" stroke="none" target-height="46.100006" target-width="173.29999" target-x="209" target-y="310.3"></path><path d="M 656.60 530.70 L 980.60 530.70 L 980.60 752.20 L 656.60 752.20 Z" fill="#abcbdd" fill-rule="nonzero" node-id="171" stroke="none" target-height="221.5" target-width="324" target-x="656.6" target-y="530.7"></path><path d="M 656.60 530.70 L 980.60 530.70 L 980.60 563.50 L 656.60 563.50 Z" fill="#314992" fill-rule="nonzero" node-id="173" stroke="none" target-height="32.799988" target-width="324" target-x="656.6" target-y="530.7"></path><path d="M 938.50 608.60 L 752.00 608.60 L 749.40 607.80 L 748.30 606.80 L 747.00 604.20 L 746.80 602.50 L 747.50 599.40 L 749.40 597.20 L 750.60 596.60 L 752.00 596.30 L 938.50 596.30 L 941.10 597.20 L 942.20 598.10 L 943.50 600.80 L 943.70 602.50 L 943.50 604.20 L 942.20 606.80 L 941.10 607.80 L 938.50 608.60 Z" fill="#ffffff" fill-rule="nonzero" node-id="175" stroke="none" target-height="12.299988" target-width="196.90002" target-x="746.8" target-y="596.3"></path><path d="M 840.00 633.30 L 752.00 633.30 L 750.60 633.10 L 748.30 632.00 L 747.50 631.20 L 746.80 629.20 L 747.50 627.10 L 748.30 626.20 L 750.60 625.20 L 752.00 625.00 L 840.00 625.00 L 841.40 625.20 L 843.70 626.20 L 844.50 627.10 L 845.20 629.10 L 844.50 631.20 L 843.70 632.00 L 841.40 633.10 L 840.00 633.30 Z" fill="#ffffff" fill-rule="nonzero" node-id="177" stroke="none" target-height="8.299988" target-width="98.400024" target-x="746.8" target-y="625"></path><path d="M 783.70 657.90 L 947.80 657.90 L 947.80 703.00 L 783.70 703.00 Z" fill="none" node-id="179" stroke="#ffffff" stroke-linecap="butt" stroke-width="1" target-height="45.099976" target-width="164.09998" target-x="783.7" target-y="657.9"></path><path d="M 361.30 292.80 L 681.20 292.80 L 681.20 625.00 L 361.30 625.00 Z" fill="#bad6f7" fill-rule="nonzero" node-id="181" stroke="none" target-height="332.2" target-width="319.90002" target-x="361.3" target-y="292.8"></path><path d="M 361.30 292.80 L 681.20 292.80 L 681.20 325.60 L 361.30 325.60 Z" fill="#6facd1" fill-rule="nonzero" node-id="183" stroke="none" target-height="32.80002" target-width="319.90002" target-x="361.3" target-y="292.8"></path><path d="M 394.10 350.20 L 467.90 350.20 L 467.90 395.40 L 394.10 395.40 Z" fill="#ffffff" fill-rule="nonzero" node-id="185" stroke="none" target-height="45.19998" target-width="73.79999" target-x="394.1" target-y="350.2"></path><path d="M 484.30 350.20 L 648.40 350.20 L 648.40 395.40 L 484.30 395.40 Z" fill="#ffffff" fill-rule="nonzero" node-id="187" stroke="none" target-height="45.19998" target-width="164.10004" target-x="484.3" target-y="350.2"></path><path d="M 426.90 481.50 L 455.60 481.50 L 455.60 575.80 L 426.90 575.80 Z" fill="#7fb3db" fill-rule="nonzero" node-id="189" stroke="none" target-height="94.29999" target-width="28.700012" target-x="426.9" target-y="481.5"></path><path d="M 480.20 465.10 L 513.00 465.10 L 513.00 575.80 L 480.20 575.80 Z" fill="#7fb3db" fill-rule="nonzero" node-id="191" stroke="none" target-height="110.69998" target-width="32.799988" target-x="480.2" target-y="465.1"></path><path d="M 533.50 448.70 L 566.40 448.70 L 566.40 575.80 L 533.50 575.80 Z" fill="#7fb3db" fill-rule="nonzero" node-id="193" stroke="none" target-height="127.099976" target-width="32.900024" target-x="533.5" target-y="448.7"></path><path d="M 586.90 424.10 L 619.70 424.10 L 619.70 575.80 L 586.90 575.80 Z" fill="#7fb3db" fill-rule="nonzero" node-id="195" stroke="none" target-height="151.69998" target-width="32.799988" target-x="586.9" target-y="424.1"></path><path d="M 404.30 590.20 L 640.20 590.20 L 640.20 586.10 L 408.40 586.10 L 408.40 493.80 L 404.30 493.80 Z" fill="#7fb3db" fill-rule="evenodd" node-id="197" stroke="none" target-height="96.400024" target-width="235.90002" target-x="404.3" target-y="493.8"></path><g node-id="327"><path d="M 607.50 416.50 L 607.60 416.00 L 619.20 418.90 L 619.10 419.40 Z" fill="#e6713e" fill-rule="nonzero" group-id="7" node-id="201" stroke="none" target-height="3.399994" target-width="11.700012" target-x="607.5" target-y="416"></path></g><g node-id="328"><path d="M 607.00 420.00 L 607.10 419.50 L 618.70 422.40 L 618.60 422.90 Z" fill="#e6713e" fill-rule="nonzero" group-id="8" node-id="206" stroke="none" target-height="3.399994" target-width="11.700012" target-x="607" target-y="419.5"></path></g><g node-id="329"><path d="M 607.70 423.80 L 607.80 423.30 L 619.40 426.30 L 619.30 426.70 Z" fill="#e6713e" fill-rule="nonzero" group-id="9" node-id="211" stroke="none" target-height="3.4000244" target-width="11.700012" target-x="607.7" target-y="423.3"></path></g><path d="M 168.50 651.70 L 167.70 648.10 L 166.80 646.50 L 164.20 643.90 L 160.50 642.10 L 156.20 641.50 L 151.90 642.10 L 148.20 643.90 L 145.60 646.50 L 144.10 649.80 L 143.90 651.70 L 144.10 653.60 L 144.70 655.30 L 146.80 658.30 L 150.00 660.60 L 151.90 661.40 L 156.20 662.00 L 160.50 661.30 L 164.20 659.50 L 166.80 656.90 L 167.70 655.30 L 168.50 651.70 Z" fill="#ffffff" fill-rule="nonzero" node-id="214" stroke="none" target-height="20.5" target-width="24.600006" target-x="143.9" target-y="641.5"></path><path d="M 64.30 530.50 L 159.30 530.50 L 162.40 530.30 L 168.40 528.90 L 173.90 525.90 L 178.50 521.70 L 180.20 519.30 L 181.60 516.70 L 182.70 513.90 L 183.30 511.00 L 183.50 507.90 L 183.30 504.90 L 182.70 502.00 L 181.60 499.20 L 180.20 496.50 L 178.50 494.10 L 176.40 491.90 L 173.90 489.90 L 171.30 488.30 L 165.50 486.10 L 162.40 485.50 L 64.30 485.40 L 61.10 485.50 L 58.00 486.10 L 55.10 487.00 L 52.20 488.30 L 49.60 489.90 L 45.00 494.10 L 43.30 496.50 L 41.90 499.20 L 40.90 502.00 L 40.20 504.90 L 40.00 507.90 L 40.20 511.00 L 40.90 513.90 L 41.90 516.70 L 43.30 519.30 L 45.00 521.70 L 49.60 525.90 L 52.20 527.60 L 58.00 529.80 L 61.10 530.30 L 64.30 530.50 Z M 173.60 520.90 L 171.60 522.60 L 167.00 525.00 L 161.90 526.30 L 159.30 526.40 L 64.30 526.40 L 59.10 525.80 L 54.30 524.00 L 52.10 522.60 L 48.30 519.10 L 46.80 517.20 L 44.80 512.80 L 44.30 510.40 L 44.30 505.40 L 44.80 503.10 L 46.80 498.60 L 48.30 496.70 L 52.10 493.20 L 54.30 491.90 L 59.10 490.00 L 64.30 489.50 L 159.30 489.50 L 164.50 490.00 L 169.40 491.90 L 173.60 494.90 L 176.80 498.70 L 178.80 503.10 L 179.50 507.90 L 178.80 512.80 L 176.80 517.20 L 173.60 520.90 Z" fill="#7fb3db" fill-rule="evenodd" node-id="216" stroke="none" target-height="45.100006" target-width="143.5" target-x="40" target-y="485.4"></path><path d="M 158.10 522.30 L 65.50 522.30 L 63.10 522.10 L 60.90 521.40 L 58.80 520.40 L 57.00 519.00 L 54.10 515.20 L 53.20 513.00 L 52.60 510.60 L 52.40 508.00 L 52.60 505.30 L 53.20 502.90 L 54.20 500.70 L 57.00 497.00 L 58.90 495.60 L 60.90 494.50 L 63.10 493.90 L 65.50 493.60 L 158.20 493.60 L 160.60 493.90 L 162.80 494.50 L 164.80 495.60 L 166.60 497.00 L 169.50 500.70 L 170.50 502.90 L 171.10 505.30 L 171.30 508.00 L 171.10 510.60 L 170.50 513.00 L 169.50 515.20 L 166.60 519.00 L 164.80 520.40 L 162.70 521.40 L 160.50 522.10 L 158.10 522.30 Z" fill="#7fb3db" fill-rule="nonzero" node-id="218" stroke="none" target-height="28.699982" target-width="118.9" target-x="52.4" target-y="493.6"></path><path d="M 895.50 323.80 L 891.10 320.20 L 889.30 320.30 L 885.90 324.10 L 883.60 327.50 L 881.60 331.20 L 881.50 333.10 L 882.60 334.70 L 886.60 337.30 L 887.60 338.60 L 887.60 340.30 L 886.60 346.20 L 886.50 346.90 L 885.60 348.00 L 879.00 350.60 L 878.10 352.10 L 878.10 353.00 L 878.70 357.30 L 879.90 361.50 L 881.90 366.40 L 883.50 367.10 L 884.40 367.00 L 889.20 365.40 L 890.70 365.40 L 891.90 366.40 L 896.00 371.40 L 896.30 372.90 L 894.00 379.70 L 894.60 381.40 L 895.20 382.00 L 898.80 384.10 L 902.60 385.80 L 907.50 387.10 L 909.00 386.20 L 911.30 380.40 L 912.30 379.20 L 913.70 378.80 L 920.50 378.40 L 921.90 379.30 L 924.20 384.50 L 925.50 385.80 L 927.30 385.90 L 931.10 384.20 L 934.70 382.10 L 938.60 378.80 L 939.00 377.10 L 938.70 376.30 L 936.10 369.90 L 936.60 368.10 L 940.20 362.70 L 941.60 362.00 L 942.40 362.10 L 947.90 363.30 L 949.50 362.40 L 951.00 357.30 L 951.70 353.10 L 951.90 348.70 L 951.80 347.80 L 950.70 346.50 L 944.70 345.00 L 944.00 344.80 L 943.00 343.70 L 941.20 337.40 L 941.10 335.80 L 942.00 334.40 L 945.80 331.10 L 946.70 329.50 L 946.30 327.60 L 942.70 322.50 L 940.60 320.20 L 937.50 317.50 L 935.70 317.60 L 931.50 321.80 L 930.10 322.50 L 928.60 322.20 L 922.40 319.40 L 921.40 318.10 L 921.20 311.20 L 920.00 309.80 L 919.10 309.50 L 915.10 309.30 L 911.10 309.50 L 907.10 310.20 L 906.20 310.60 L 905.20 312.10 L 905.60 319.00 L 904.90 320.40 L 897.80 324.40 L 896.20 324.30 L 895.50 323.80 Z M 916.30 328.50 L 920.10 329.70 L 923.40 331.20 L 926.10 333.10 L 928.40 335.50 L 930.20 338.00 L 931.60 340.80 L 932.60 343.70 L 933.10 346.70 L 933.10 349.80 L 932.70 352.90 L 931.90 355.80 L 930.70 358.60 L 929.00 361.20 L 926.90 363.40 L 924.30 365.50 L 921.40 367.00 L 918.00 368.20 L 914.10 368.90 L 909.50 367.70 L 906.20 366.10 L 903.60 364.20 L 901.20 361.90 L 899.40 359.30 L 898.00 356.60 L 897.00 353.60 L 896.50 350.60 L 896.50 347.60 L 896.90 344.50 L 897.70 341.60 L 899.00 338.80 L 900.60 336.20 L 902.80 333.90 L 905.30 331.90 L 908.20 330.30 L 911.60 329.20 L 916.30 328.50 Z" fill="#6facd1" fill-rule="nonzero" node-id="220" stroke="none" target-height="77.80002" target-width="73.80005" target-x="878.1" target-y="309.3"></path><path d="M 847.60 374.00 L 843.90 371.10 L 842.40 371.20 L 839.50 374.20 L 837.60 376.90 L 835.90 379.90 L 835.80 381.40 L 836.70 382.60 L 840.00 384.60 L 840.90 385.60 L 840.90 386.90 L 840.10 391.60 L 839.20 393.10 L 833.80 395.10 L 833.00 396.30 L 833.00 397.00 L 834.50 403.80 L 836.20 407.60 L 837.60 408.20 L 842.30 406.90 L 843.60 406.90 L 844.60 407.60 L 848.00 411.60 L 848.30 412.80 L 846.30 418.10 L 846.70 419.50 L 847.30 420.00 L 853.40 423.00 L 857.50 424.10 L 858.80 423.40 L 860.70 418.70 L 861.50 417.80 L 862.70 417.40 L 868.40 417.10 L 869.50 417.70 L 871.50 421.90 L 872.50 422.90 L 874.00 423.00 L 877.20 421.70 L 880.10 420.00 L 883.40 417.50 L 883.70 416.10 L 883.50 415.40 L 881.30 410.40 L 881.80 408.90 L 884.70 404.80 L 885.90 404.30 L 891.10 405.30 L 892.40 404.60 L 893.70 400.60 L 894.50 393.80 L 894.30 393.00 L 893.50 392.00 L 888.50 390.90 L 887.00 389.90 L 885.50 384.80 L 885.40 383.50 L 886.10 382.40 L 889.80 379.20 L 890.00 377.80 L 887.70 374.30 L 885.50 371.70 L 882.30 369.00 L 880.90 369.10 L 877.30 372.40 L 876.80 372.80 L 875.50 373.00 L 870.30 370.80 L 869.20 370.00 L 868.80 368.80 L 868.70 364.00 L 867.70 362.90 L 863.60 362.60 L 860.20 362.80 L 856.90 363.30 L 855.70 364.10 L 855.30 365.60 L 855.60 370.20 L 855.00 371.40 L 849.40 374.50 L 848.10 374.40 L 847.60 374.00 Z M 864.90 377.70 L 867.80 378.50 L 872.40 380.90 L 874.20 382.40 L 876.20 384.90 L 877.70 387.50 L 878.60 390.20 L 878.90 393.20 L 878.80 396.00 L 878.10 398.90 L 876.90 401.50 L 875.20 403.90 L 872.90 406.10 L 868.70 408.40 L 863.00 409.70 L 859.50 408.90 L 854.90 406.50 L 853.10 405.00 L 851.00 402.50 L 849.60 400.00 L 848.70 397.20 L 848.30 394.20 L 848.50 391.40 L 849.20 388.50 L 850.40 385.90 L 852.10 383.50 L 854.40 381.30 L 858.60 379.00 L 861.20 378.20 L 864.90 377.70 Z" fill="#ffffff" fill-rule="nonzero" node-id="222" stroke="none" target-height="61.5" target-width="61.5" target-x="833" target-y="362.6"></path><path d="M 500.30 327.70 L 381.80 327.70 L 381.80 331.80 L 502.00 331.80 L 524.20 311.10 L 534.70 301.80 L 538.80 298.60 L 536.50 295.20 L 532.30 298.50 L 521.70 307.90 L 500.30 327.70 Z" fill="#5558a5" fill-rule="evenodd" node-id="224" stroke="none" target-height="36.599976" target-width="157" target-x="381.8" target-y="295.2"></path><path d="M 385.90 335.90 L 385.60 334.10 L 384.80 332.50 L 383.70 331.20 L 382.10 330.20 L 380.30 329.80 L 378.50 329.90 L 376.80 330.50 L 375.40 331.50 L 374.30 333.00 L 373.70 334.70 L 373.60 336.50 L 374.10 338.30 L 375.00 339.80 L 376.30 341.00 L 377.90 341.80 L 379.80 342.00 L 381.40 341.80 L 382.80 341.20 L 384.10 340.20 L 385.00 339.00 L 385.60 337.60 L 385.90 335.90 Z" fill="#314992" fill-rule="nonzero" node-id="226" stroke="none" target-height="12.200012" target-width="12.299988" target-x="373.6" target-y="329.8"></path><path d="M 612.40 196.40 L 750.90 196.40 L 750.90 192.30 L 610.60 192.30 L 597.00 206.70 L 589.50 214.10 L 585.60 217.40 L 588.10 220.60 L 592.00 217.20 L 599.60 209.90 L 612.40 196.40 Z" fill="#5558a5" fill-rule="evenodd" node-id="228" stroke="none" target-height="28.300003" target-width="165.30005" target-x="585.6" target-y="192.3"></path><path d="M 757.50 196.80 L 758.50 195.10 L 759.00 193.50 L 759.10 192.00 L 758.80 190.40 L 757.30 188.00 L 754.90 186.50 L 753.40 186.20 L 751.80 186.30 L 750.20 186.80 L 748.50 187.80 L 747.40 189.60 L 746.90 191.20 L 746.80 192.70 L 747.10 194.20 L 748.60 196.70 L 751.10 198.20 L 752.60 198.50 L 754.10 198.40 L 755.70 197.90 L 757.50 196.80 Z" fill="#314992" fill-rule="nonzero" node-id="230" stroke="none" target-height="12.300003" target-width="12.299988" target-x="746.8" target-y="186.2"></path><path d="M 625.40 262.80 L 625.20 268.60 L 624.50 274.10 L 623.40 279.50 L 621.90 284.70 L 619.90 289.80 L 617.70 294.70 L 615.00 299.30 L 612.00 303.70 L 608.70 307.90 L 605.10 311.80 L 601.20 315.40 L 597.00 318.70 L 592.60 321.70 L 588.00 324.40 L 583.10 326.60 L 578.00 328.60 L 572.80 330.10 L 567.40 331.20 L 561.90 331.90 L 556.10 332.10 L 550.40 331.90 L 544.80 331.20 L 539.40 330.10 L 534.20 328.60 L 529.10 326.60 L 524.30 324.40 L 519.60 321.70 L 515.20 318.70 L 511.00 315.40 L 507.10 311.80 L 503.50 307.90 L 500.20 303.70 L 497.20 299.30 L 494.60 294.70 L 492.30 289.80 L 490.40 284.70 L 488.80 279.50 L 487.70 274.10 L 487.10 268.60 L 486.80 262.80 L 487.10 257.10 L 487.70 251.50 L 488.80 246.10 L 490.40 240.90 L 492.30 235.80 L 494.60 230.90 L 497.20 226.30 L 500.20 221.90 L 503.50 217.70 L 507.10 213.80 L 511.00 210.20 L 515.20 206.90 L 519.60 203.90 L 524.30 201.30 L 529.10 199.00 L 534.20 197.10 L 539.40 195.50 L 544.80 194.40 L 550.40 193.80 L 556.10 193.50 L 561.90 193.80 L 567.40 194.40 L 572.80 195.50 L 578.00 197.10 L 583.10 199.00 L 588.00 201.30 L 592.60 203.90 L 597.00 206.90 L 601.20 210.20 L 605.10 213.80 L 608.70 217.70 L 612.00 221.90 L 615.00 226.30 L 617.70 230.90 L 619.90 235.80 L 621.90 240.90 L 623.40 246.10 L 624.50 251.50 L 625.20 257.10 L 625.40 262.80 Z" fill="#7fb3db" fill-rule="nonzero" node-id="232" stroke="none" target-height="138.6" target-width="138.60004" target-x="486.8" target-y="193.5"></path><path d="M 554.00 329.70 L 560.00 329.50 L 565.90 328.90 L 571.60 327.80 L 577.10 326.30 L 582.60 324.50 L 587.80 322.20 L 592.70 319.70 L 597.50 316.70 L 602.00 313.40 L 606.20 309.90 L 610.10 306.00 L 613.70 301.90 L 616.90 297.40 L 619.70 292.80 L 622.20 287.80 L 624.30 282.70 L 625.90 277.30 L 627.00 272.00 L 627.60 266.70 L 627.80 261.40 L 627.60 256.00 L 626.90 250.80 L 625.70 245.70 L 624.10 240.60 L 622.10 235.70 L 619.70 230.90 L 616.90 226.30 L 613.70 221.90 L 610.10 217.70 L 606.20 213.80 L 601.90 210.10 L 597.10 206.70 L 554.00 261.80" fill="#314992" fill-rule="nonzero" node-id="234" stroke="none" target-height="123.000015" target-width="73.79999" target-x="554" target-y="206.7"></path><path d="M 553.70 264.90 L 488.40 264.10 L 488.70 269.60 L 489.30 274.80 L 490.30 279.90 L 491.80 284.80 L 493.60 289.70 L 498.20 298.70 L 501.10 302.90 L 507.60 310.50 L 515.30 317.10 L 519.50 319.90 L 528.40 324.50 L 533.30 326.40 L 538.20 327.80 L 543.30 328.90 L 548.60 329.50 L 554.00 329.70" fill="#ffffff" fill-rule="nonzero" node-id="236" stroke="none" target-height="65.600006" target-width="65.600006" target-x="488.4" target-y="264.1"></path><path d="M 662.80 173.90 L 616.00 173.70 L 614.40 173.10 L 613.10 172.20 L 612.10 170.90 L 611.40 169.30 L 611.20 167.70 L 611.40 166.10 L 612.10 164.60 L 613.10 163.30 L 614.40 162.30 L 616.00 161.70 L 662.70 161.60 L 664.30 161.80 L 665.70 162.50 L 667.90 164.70 L 668.70 167.70 L 668.50 169.30 L 667.00 172.00 L 664.40 173.60 L 662.80 173.90 Z" fill="#ffffff" fill-rule="nonzero" node-id="238" stroke="none" target-height="12.299988" target-width="57.5" target-x="611.2" target-y="161.6"></path><path d="M 494.60 317.40 L 449.50 317.40 L 447.80 317.20 L 446.30 316.60 L 445.10 315.60 L 444.10 314.40 L 443.50 312.90 L 443.30 311.30 L 443.50 309.60 L 444.10 308.20 L 446.30 306.00 L 447.80 305.40 L 449.50 305.10 L 494.60 305.10 L 496.20 305.40 L 497.70 306.00 L 499.90 308.20 L 500.50 309.60 L 500.70 311.30 L 500.50 312.90 L 499.90 314.40 L 498.90 315.60 L 497.70 316.60 L 496.20 317.20 L 494.60 317.40 Z" fill="#ffffff" fill-rule="nonzero" node-id="240" stroke="none" target-height="12.299988" target-width="57.400024" target-x="443.3" target-y="305.1"></path><path d="M 338.30 645.10 L 339.10 644.90 L 340.70 645.60 L 341.20 647.20 L 340.50 648.60 L 337.10 650.20 L 346.70 650.70 L 348.00 651.70 L 348.60 655.10 L 348.30 656.00 L 343.70 660.00 L 338.40 664.00 L 336.20 663.60 L 333.90 662.50 L 331.70 660.90 L 329.80 659.00 L 328.30 656.90 L 327.30 654.80 L 324.90 648.40 L 338.30 645.10 Z" fill="#ff9e85" fill-rule="nonzero" node-id="242" stroke="none" target-height="19.099976" target-width="23.700012" target-x="324.9" target-y="644.9"></path><g node-id="330"><path d="M 338.30 645.10 L 339.10 644.90 L 340.70 645.60 L 341.20 647.20 L 340.50 648.60 L 337.10 650.20 L 346.70 650.70 L 348.00 651.70 L 348.60 655.10 L 348.30 656.00 L 343.70 660.00 L 338.40 664.00 L 336.20 663.60 L 333.90 662.50 L 331.70 660.90 L 329.80 659.00 L 328.30 656.90 L 327.30 654.80 L 324.90 648.40 L 338.30 645.10 Z" fill="#0c0c0c" fill-opacity="0.1" fill-rule="nonzero" group-id="10" node-id="246" stroke="none" target-height="19.099976" target-width="23.700012" target-x="324.9" target-y="644.9"></path></g><path d="M 177.50 874.00 L 175.40 878.60 L 174.80 880.70 L 174.40 883.30 L 174.40 886.00 L 175.70 890.70 L 176.70 892.60 L 180.10 897.10 L 181.10 899.10 L 181.70 902.60 L 181.00 905.40 L 179.90 907.00 L 177.60 909.10 L 144.10 875.30 L 160.80 858.50 L 177.50 874.00 Z" fill="#367cff" fill-rule="nonzero" node-id="249" stroke="none" target-height="50.599976" target-width="37.59999" target-x="144.1" target-y="858.5"></path><path d="M 178.80 641.20 L 179.70 716.50 L 179.30 752.70 L 178.40 765.00 L 175.60 782.30 L 173.30 793.10 L 167.70 814.50 L 161.60 834.30 L 156.10 850.60 L 150.60 865.80 L 176.20 884.40 L 187.50 863.00 L 195.90 844.60 L 200.50 833.70 L 204.80 822.30 L 209.00 810.00 L 212.80 797.40 L 216.00 784.20 L 217.90 775.40 L 220.40 757.60 L 223.70 720.30 L 230.00 639.80 L 178.80 641.20 Z" fill="#262626" fill-rule="nonzero" node-id="251" stroke="none" target-height="244.60004" target-width="79.399994" target-x="150.6" target-y="639.8"></path><path d="M 258.00 884.50 L 259.70 889.20 L 260.80 891.20 L 262.30 893.30 L 264.20 895.20 L 268.40 897.60 L 270.50 898.20 L 276.00 899.00 L 278.20 899.70 L 281.00 901.70 L 282.50 904.20 L 282.90 906.10 L 282.70 909.20 L 235.20 909.20 L 235.20 885.40 L 258.00 884.50 Z" fill="#367cff" fill-rule="nonzero" node-id="253" stroke="none" target-height="24.700012" target-width="47.699997" target-x="235.2" target-y="884.5"></path><path d="M 264.00 643.80 L 266.80 731.40 L 267.50 765.40 L 263.80 892.10 L 233.20 892.70 L 228.20 760.80 L 226.50 745.90 L 222.70 720.90 L 218.70 700.90 L 213.80 680.20 L 211.70 669.70 L 210.10 659.10 L 209.00 648.40 L 208.20 637.70 L 264.00 643.80 Z" fill="#262626" fill-rule="nonzero" node-id="255" stroke="none" target-height="255" target-width="59.300003" target-x="208.2" target-y="637.7"></path><path d="M 223.60 726.00 L 226.10 686.70 L 227.50 696.80 L 228.30 706.90 L 228.80 717.10 L 227.30 751.30 L 223.60 726.00 Z" fill="#0a0a0a" fill-rule="nonzero" node-id="257" stroke="none" target-height="64.599976" target-width="5.199997" target-x="223.6" target-y="686.7"></path><path d="M 178.50 641.20 L 178.50 640.30 Z" fill="#333333" fill-rule="nonzero" node-id="259" stroke="none" target-height="0.9000244" target-width="0" target-x="178.5" target-y="640.3"></path><path d="M 178.60 641.20 L 178.60 640.30 Z" fill="#333333" fill-rule="nonzero" node-id="261" stroke="none" target-height="0.9000244" target-width="0" target-x="178.6" target-y="640.3"></path><path d="M 243.80 498.00 L 246.40 494.10 L 248.50 488.40 L 249.30 481.80 L 248.70 478.60 L 248.20 478.00 L 247.10 477.50 L 245.90 477.70 L 242.50 479.80 L 242.00 477.00 L 241.50 476.00 L 240.70 475.30 L 239.70 474.90 L 238.30 475.00 L 236.80 475.70 L 234.60 478.00 L 232.50 482.70" fill="#0c0c0c" fill-rule="nonzero" node-id="263" stroke="none" target-height="23.100006" target-width="16.800003" target-x="232.5" target-y="474.9"></path><path d="M 216.20 478.80 L 213.20 480.00 L 211.20 481.10 L 209.20 482.70 L 207.20 484.80 L 205.00 488.50 L 203.60 493.30 L 203.50 499.70 L 204.10 503.10 L 205.10 507.10 L 206.90 511.80 L 212.60 511.40" fill="#0c0c0c" fill-rule="nonzero" node-id="265" stroke="none" target-height="33" target-width="12.699997" target-x="203.5" target-y="478.8"></path><g node-id="331"><path d="M 243.10 540.60 L 242.30 544.20 L 240.00 549.10 L 238.00 551.50 L 234.30 554.30 L 231.70 555.40 L 229.10 556.10 L 225.80 556.50 L 221.80 556.50 L 219.00 556.10 L 214.40 554.40 L 211.40 552.60 L 209.00 550.40 L 206.90 548.10 L 205.40 545.90 L 202.50 540.60 L 206.60 539.60 L 209.60 538.20 L 211.70 535.80 L 212.40 534.40 L 212.80 532.70 L 213.00 529.30 L 212.80 515.20 L 234.20 520.00 L 233.70 527.90 L 233.80 531.00 L 234.30 533.90 L 235.30 536.40 L 236.30 537.80 L 237.50 538.90 L 239.20 539.60 L 243.20 540.60 Z" fill="#fbb99d" fill-rule="nonzero" group-id="11" node-id="268" stroke="none" target-height="41.299988" target-width="40.699997" target-x="202.5" target-y="515.2"></path></g><g node-id="332"><path d="M 234.50 534.60 L 233.90 531.30 L 233.70 527.40 L 234.00 523.60 L 230.80 522.90 L 227.70 521.80 L 224.80 520.30 L 222.20 518.40 L 220.10 526.70 L 220.20 527.70 L 221.00 529.00 L 222.70 530.60 L 224.80 532.10 L 227.60 533.40 L 231.90 534.50 L 234.50 534.70 Z" fill="#0c0c0c" fill-opacity="0.22" fill-rule="nonzero" group-id="12" node-id="272" stroke="none" target-height="16.299988" target-width="14.399994" target-x="220.1" target-y="518.4"></path></g><path d="M 231.30 529.60 L 228.10 529.50 L 224.70 529.00 L 221.40 528.00 L 218.30 526.50 L 214.70 523.70 L 211.90 519.80 L 211.00 517.40 L 208.80 504.40 L 208.40 500.60 L 208.60 497.00 L 209.20 493.70 L 210.20 490.60 L 211.80 487.80 L 213.70 485.50 L 217.40 482.80 L 222.40 481.30 L 225.10 481.10 L 227.60 481.30 L 232.40 482.70 L 235.30 484.30 L 237.90 486.40 L 240.10 489.10 L 241.90 492.00 L 243.30 495.40 L 244.90 503.60 L 245.10 508.40 L 244.90 515.70 L 243.90 521.00 L 243.00 523.50 L 241.70 525.40 L 240.20 526.90 L 238.40 528.00 L 234.00 529.30 L 231.30 529.60 Z" fill="#fbb99d" fill-rule="nonzero" node-id="275" stroke="none" target-height="48.49997" target-width="36.700012" target-x="208.4" target-y="481.1"></path><path d="M 211.50 518.00 L 209.90 518.00 L 208.40 517.40 L 207.10 516.50 L 205.10 513.70 L 204.60 512.20 L 204.60 510.60 L 205.00 509.30 L 205.80 508.10 L 208.20 506.60 L 209.80 506.20 L 211.80 508.20 L 214.30 517.60 L 211.50 518.00 Z" fill="#fbb99d" fill-rule="nonzero" node-id="277" stroke="none" target-height="11.799988" target-width="9.699997" target-x="204.6" target-y="506.2"></path><path d="M 213.10 512.40 L 213.70 512.10 L 214.00 511.40 L 214.00 507.40 L 214.70 499.40 L 215.40 497.20 L 216.80 495.00 L 217.70 494.50 L 219.00 494.20 L 231.00 495.30 L 233.80 495.10 L 238.90 493.90 L 240.90 493.90 L 242.10 494.20 L 243.30 495.20 L 243.40 492.70 L 242.60 488.40 L 241.70 485.90 L 240.30 483.50 L 238.40 481.10 L 237.10 480.10 L 233.50 478.50 L 226.90 477.50 L 220.20 477.90 L 214.80 479.30 L 211.80 481.00 L 209.60 482.80 L 208.10 484.90 L 207.00 487.20 L 206.30 489.60 L 206.00 492.10 L 206.10 495.80 L 207.50 502.50 L 209.20 507.10 L 210.50 511.70 L 210.90 512.30 L 211.50 512.50 L 213.10 512.40 Z" fill="#0c0c0c" fill-rule="nonzero" node-id="279" stroke="none" target-height="35" target-width="37.399994" target-x="206" target-y="477.5"></path><g node-id="333"><path d="M 235.60 479.70 L 236.00 481.50 L 235.90 484.60 L 235.30 486.00 L 234.60 486.90 L 233.60 487.50 L 232.40 487.70 L 231.20 487.40 L 229.90 486.70 L 227.90 484.40 L 227.10 482.70 L 226.70 481.00 L 226.80 477.90 L 227.30 476.50 L 228.10 475.60 L 229.10 475.00 L 230.30 474.80 L 231.50 475.00 L 232.80 475.80 L 234.80 478.10 L 235.60 479.70 Z" fill="#0c0c0c" fill-rule="nonzero" group-id="13" node-id="283" stroke="none" target-height="12.900024" target-width="9.300003" target-x="226.7" target-y="474.8"></path></g><path d="M 240.30 563.80 L 269.10 630.40 L 270.50 632.90 L 272.30 635.10 L 274.50 636.90 L 324.80 671.10 L 342.10 646.00 L 292.20 611.30 L 297.70 617.90 L 268.90 551.50 L 240.30 563.80 Z" fill="#f2a261" fill-rule="nonzero" node-id="286" stroke="none" target-height="119.599976" target-width="101.8" target-x="240.3" target-y="551.5"></path><path d="M 268.50 579.50 L 264.10 643.80 L 179.00 643.80 L 175.70 593.90 L 174.50 582.00 L 171.60 563.40 L 171.00 557.20 L 171.90 553.70 L 173.50 551.30 L 175.50 549.10 L 177.90 547.10 L 182.00 544.70 L 186.40 542.80 L 190.80 541.40 L 194.80 540.70 L 206.40 539.60 L 206.90 542.10 L 208.40 545.70 L 209.90 547.60 L 211.70 549.20 L 216.10 551.50 L 221.10 552.30 L 228.00 552.00 L 230.40 551.40 L 234.50 549.40 L 237.40 546.20 L 238.40 544.30 L 238.90 542.40 L 239.20 539.60 L 248.20 540.80 L 254.80 542.20 L 259.50 543.70 L 262.70 545.30 L 265.40 547.20 L 267.40 549.20 L 268.80 551.30 L 269.80 553.70 L 270.30 556.20 L 270.60 559.00 L 270.40 563.30 L 268.50 579.50 Z" fill="#ff7946" fill-rule="nonzero" node-id="288" stroke="none" target-height="104.20001" target-width="99.600006" target-x="171" target-y="539.6"></path><path d="M 269.20 616.80 L 268.70 615.70 L 267.60 614.80 L 270.00 614.10 L 270.80 613.00 L 270.70 611.50 L 270.30 610.90 L 268.90 610.30 L 270.80 609.40 L 271.30 608.20 L 271.10 607.30 L 269.70 606.20 L 267.20 606.60 L 268.20 605.60 L 268.30 604.30 L 268.00 603.60 L 266.50 602.90 L 256.50 604.90 L 258.70 603.30 L 259.50 602.00 L 259.30 600.40 L 257.90 599.50 L 256.40 599.90 L 244.40 608.70 L 243.10 610.00 L 242.20 611.40 L 241.70 613.00 L 241.70 614.70 L 242.00 616.40 L 242.80 618.00 L 244.20 619.50 L 245.70 620.70 L 249.40 622.10 L 253.40 622.00 L 267.50 618.90 L 268.70 618.10 L 269.20 616.70 Z" fill="#fbb99d" fill-rule="nonzero" node-id="290" stroke="none" target-height="22.599976" target-width="29.59999" target-x="241.7" target-y="599.5"></path><g node-id="334"><path d="M 258.10 608.40 L 267.30 606.50 L 258.10 608.30 Z" fill="#fbb99d" fill-opacity="0.25" fill-rule="nonzero" group-id="14" node-id="294" stroke="none" target-height="1.9000244" target-width="9.199982" target-x="258.1" target-y="606.5"></path></g><g node-id="335"><path d="M 258.80 612.30 L 269.00 610.20 L 258.80 612.30 Z" fill="#fbb99d" fill-opacity="0.25" fill-rule="nonzero" group-id="15" node-id="299" stroke="none" target-height="2.0999756" target-width="10.200012" target-x="258.8" target-y="610.2"></path></g><g node-id="336"><path d="M 259.50 616.50 L 267.70 614.80 L 259.50 616.50 Z" fill="#fbb99d" fill-opacity="0.25" fill-rule="nonzero" group-id="16" node-id="304" stroke="none" target-height="1.7000122" target-width="8.200012" target-x="259.5" target-y="614.8"></path></g><g node-id="337"><path d="M 252.50 627.70 L 176.10 641.60 L 172.20 641.50 L 168.20 640.40 L 164.60 638.20 L 163.10 636.80 L 160.40 632.80 L 159.00 628.20 L 158.90 625.90 L 169.80 559.30 L 170.50 556.60 L 171.60 554.20 L 173.10 551.90 L 175.00 550.00 L 177.10 548.40 L 179.70 547.20 L 182.40 546.40 L 185.00 546.20 L 187.70 546.40 L 190.40 547.10 L 192.80 548.20 L 195.10 549.80 L 197.10 551.80 L 198.60 554.00 L 199.80 556.40 L 200.50 559.10 L 200.70 561.70 L 200.40 564.50 L 193.10 608.60 L 249.20 601.60 L 252.60 627.70 Z" fill="#ffa35f" fill-rule="nonzero" group-id="17" node-id="308" stroke="none" target-height="95.39996" target-width="93.70001" target-x="158.9" target-y="546.2"></path></g><path d="M 339.40 655.90 L 339.90 656.80 L 341.00 657.30 L 339.10 658.30 L 338.60 659.40 L 338.90 660.60 L 339.90 661.20 L 340.60 661.20 L 339.10 662.30 L 339.00 663.40 L 339.30 664.10 L 340.60 664.80 L 342.60 664.10 L 341.90 665.60 L 342.40 666.70 L 343.00 667.00 L 344.40 666.80 L 346.90 665.50 L 347.80 664.70 L 348.30 663.50 L 348.60 655.40 L 348.50 653.40 L 347.80 651.30 L 346.80 651.00 L 340.40 653.80 L 339.60 654.70 L 339.40 655.80 Z" fill="#ff9e85" fill-rule="nonzero" node-id="311" stroke="none" target-height="16" target-width="10" target-x="338.6" target-y="651"></path><path d="M 284.20 665.40 L 325.20 665.40 L 321.90 673.60 L 284.20 673.60 Z" fill="#afc0e0" fill-rule="nonzero" node-id="313" stroke="none" target-height="8.199951" target-width="41" target-x="284.2" target-y="665.4"></path><path d="M 282.10 663.30 L 282.10 675.60 L 323.30 675.60 L 328.20 663.30 Z M 286.20 671.50 L 320.50 671.50 L 322.20 667.40 L 286.20 667.40 Z" fill="#afc0e0" fill-rule="evenodd" node-id="315" stroke="none" target-height="12.299988" target-width="46.100006" target-x="282.1" target-y="663.3"></path><path d="M 417.70 673.60 L 325.20 673.60 L 347.50 608.00 L 440.00 608.00 Z" fill="#3a3a77" fill-rule="nonzero" node-id="317" stroke="none" target-height="65.599976" target-width="114.79999" target-x="325.2" target-y="608"></path><path d="M 388.50 646.30 L 386.80 646.10 L 385.30 645.50 L 383.90 644.50 L 382.80 643.10 L 382.20 641.60 L 381.90 639.90 L 382.20 638.20 L 382.90 636.70 L 381.50 637.30 L 379.40 639.50 L 378.50 642.40 L 379.20 645.40 L 380.00 646.70 L 381.20 647.70 L 384.10 648.90 L 385.60 649.00 L 388.60 648.00 L 390.80 645.80 L 388.50 646.30 Z" fill="#ffffff" fill-rule="nonzero" node-id="319" stroke="none" target-height="12.299988" target-width="12.299988" target-x="378.5" target-y="636.7"></path></svg>