<svg t="1737190028998" class="icon" viewBox="0 0 1024 1024" version="1.1" xmlns="http://www.w3.org/2000/svg" p-id="25633" width="200" height="200"><path d="M840 511.8H184c-13.3 0-24-10.7-24-24V162.3c0-13.3 10.7-24 24-24h616c35.3 0 64 28.7 64 64v285.5c0 13.3-10.7 24-24 24z" fill="#5285D6" p-id="25634"></path><path d="M944 310.3V864H80.7V195.5h262.8l101.6 114.8z" fill="#FFFFFF" p-id="25635"></path><path d="M944 880H80.7c-8.8 0-16-7.2-16-16V195.5c0-8.8 7.2-16 16-16h262.8c4.6 0 8.9 2 12 5.4l96.8 109.4H944c8.8 0 16 7.2 16 16V864c0 8.9-7.2 16-16 16zM96.7 848H928V326.3H445.1c-4.6 0-8.9-2-12-5.4l-96.8-109.4H96.7V848z" fill="#00365B" p-id="25636"></path><path d="M393.7 746.3h-148c-19.8 0-36-16.2-36-36s16.2-36 36-36h148c19.8 0 36 16.2 36 36s-16.2 36-36 36z" fill="#5285D6" p-id="25637"></path></svg>