<svg t="1737174756467" class="icon" viewBox="0 0 1024 1024" version="1.1" xmlns="http://www.w3.org/2000/svg" p-id="6732" width="200" height="200"><path d="M871.6 63.2H685.9c-15.6 0-29.8 6.5-40 16.8-10.2-10.4-24.3-16.8-40-16.8H420.1c-15.6 0-29.8 6.4-39.9 16.8-10.2-10.4-24.3-16.8-39.9-16.8H154.4c-30.9 0-56 25.1-56 56v784c0 30.9 25.1 56 56 56h185.8c15.6 0 29.8-6.4 39.9-16.8 10.2 10.4 24.3 16.8 39.9 16.8h185.8c15.6 0 29.8-6.5 40-16.8 10.2 10.4 24.3 16.8 40 16.8h185.8c30.9 0 56-25.1 56-56v-784c0-30.9-25.1-56-56-56z m-531.4 864H154.4c-13.2 0-24-10.8-24-24v-784c0-13.2 10.8-24 24-24h185.8c12.7 0 23.1 9.9 23.9 22.3V904.9c-0.8 12.4-11.2 22.3-23.9 22.3z m265.7 0H420.1c-12.7 0-23.1-9.9-23.9-22.3V119.2v-1.7c0.9-12.5 11.3-22.3 23.9-22.3h185.8c13 0 23.6 10.4 24 23.3V903.9c-0.4 12.9-11 23.3-24 23.3z m289.7-24c0 13.2-10.8 24-24 24H685.9c-13 0-23.6-10.4-24-23.3V119.2v-0.7c0.4-12.9 11-23.3 24-23.3h185.8c13.2 0 24 10.8 24 24v784z" fill="#00365B" p-id="6733"></path><path d="M798 831.7h-38.6c-14 0-25.4-11.4-25.4-25.4V528.7c0-14 11.4-25.4 25.4-25.4H798c14 0 25.4 11.4 25.4 25.4v277.6c0.1 14-11.3 25.4-25.4 25.4zM532.3 831.7h-38.6c-14 0-25.4-11.4-25.4-25.4V528.7c0-14 11.4-25.4 25.4-25.4h38.6c14 0 25.4 11.4 25.4 25.4v277.6c0 14-11.4 25.4-25.4 25.4zM186.5 271.5V202c0-5.5 4.5-10 10-10h101.6c5.5 0 10 4.5 10 10v69.4c0 5.5-4.5 10-10 10H196.5c-5.5 0.1-10-4.4-10-9.9zM186.5 411.5V342c0-5.5 4.5-10 10-10h101.6c5.5 0 10 4.5 10 10v69.4c0 5.5-4.5 10-10 10H196.5c-5.5 0.1-10-4.4-10-9.9z" fill="#0080FF" p-id="6734"></path></svg>