<svg t="1737174981995" class="icon" viewBox="0 0 1024 1024" version="1.1" xmlns="http://www.w3.org/2000/svg" p-id="8611" width="200" height="200"><path d="M512 512m-512 0a512 512 0 1 0 1024 0 512 512 0 1 0-1024 0Z" fill="#3CE38A" p-id="8612"></path><path d="M512 628.363636a139.636364 139.636364 0 0 1 120.785455 69.818182H391.214545A139.636364 139.636364 0 0 1 512 628.363636m0-69.818181a209.454545 209.454545 0 0 0-209.454545 209.454545h418.90909a209.454545 209.454545 0 0 0-209.454545-209.454545z" fill="#FFFFFF" p-id="8613"></path><path d="M359.796364 526.661818L328.145455 560.872727l68.421818 63.069091 31.650909-34.210909-68.421818-63.069091z" fill="#FFFFFF" p-id="8614"></path><path d="M278.807273 625.338182l-22.341818 40.727273 81.454545 45.14909 22.341818-40.727272-81.454545-45.149091z" fill="#FFFFFF" p-id="8615"></path><path d="M536.669091 488.494545l-46.545455 0.93091 1.629091 93.090909 46.545455-0.930909-1.629091-93.09091z" fill="#FFFFFF" p-id="8616"></path><path d="M657.454545 532.014545l-60.276363 70.749091 35.607273 30.254546 60.276363-70.981818-35.607273-30.021819z" fill="#FFFFFF" p-id="8617"></path><path d="M657.454545 532.014545l-60.276363 70.749091 35.607273 30.254546 60.276363-70.981818-35.607273-30.021819z" fill="#FFFFFF" p-id="8618"></path><path d="M744.261818 632.552727l-81.454545 45.381818 22.574545 40.494546 81.454546-45.149091-22.574546-40.727273z" fill="#FFFFFF" p-id="8619"></path><path d="M814.545455 256H209.454545a23.272727 23.272727 0 0 0-23.272727 23.272727v488.727273a23.272727 23.272727 0 0 0 23.272727 23.272727h605.09091a23.272727 23.272727 0 0 0 23.272727-23.272727V279.272727a23.272727 23.272727 0 0 0-23.272727-23.272727z m-69.818182 23.272727h23.272727v46.545455h-23.272727z m-46.545455 0h23.272727v46.545455h-23.272727z m-46.545454 0h23.272727v46.545455h-23.272727z m162.909091 488.727273H209.454545V349.090909h605.09091z" fill="#FFFFFF" p-id="8620"></path></svg>