<svg t="1736755498152" class="icon" viewBox="0 0 1024 1024" version="1.1" xmlns="http://www.w3.org/2000/svg" p-id="11260" width="200" height="200"><path d="M512 76.8C271.6416 76.8 76.8 271.6416 76.8 512s194.8416 435.2 435.2 435.2 435.2-194.8416 435.2-435.2S752.3584 76.8 512 76.8zM25.6 512C25.6 243.3664 243.3664 25.6 512 25.6s486.4 217.7664 486.4 486.4-217.7664 486.4-486.4 486.4S25.6 780.6336 25.6 512z" fill="#3A4453" p-id="11261"></path><path d="M544 544m-390.4 0a390.4 390.4 0 1 0 780.8 0 390.4 390.4 0 1 0-780.8 0Z" fill="#F0F9FE" p-id="11262"></path><path d="M332.8 358.4a51.2 51.2 0 0 1 51.2 51.2v128a51.2 51.2 0 0 1-102.4 0V409.6a51.2 51.2 0 0 1 51.2-51.2zM753.2544 383.5648a44.8 44.8 0 0 1-10.4192 62.4896L704.2816 473.6l38.5536 27.5456a44.8 44.8 0 1 1-52.0704 72.9088l-89.6-64a44.8 44.8 0 0 1 0-72.9088l89.6-64a44.8 44.8 0 0 1 62.4896 10.4192z" fill="#4FB5F5" p-id="11263"></path></svg>