<svg t="1736759959291" class="icon" viewBox="0 0 1024 1024" version="1.1" xmlns="http://www.w3.org/2000/svg" p-id="42850" width="200" height="200"><path d="M937.443 953.534c11.013-148.404-61.271-189.048-226.494-189.048v66.362c0 5.226-2.836 9.936-7.725 11.98-1.626 0.619-3.252 0.932-4.948 0.932-3.317 0-6.609-1.279-9.138-3.808L534.646 719.211c-5.018-5.023-5.018-13.253 0-18.247l154.498-121.361c3.704-3.635 9.271-4.845 14.047-2.801 4.89 2.003 7.725 6.678 7.725 11.939v70.582c162.242-0.034 296.52 56.774 226.527 294.211zM787.869 838.777v-0.277c-0.143-0.036-0.283-0.036-0.416-0.07 0.133 0.138 0.273 0.278 0.416 0.347z m-126.388 74.911c0-3.496-2.807-9.109-8.341-14.642-2.911-1.909-5.85-3.774-8.513-6.094L492.033 773.733c-2.211-1.764-4.323-3.6-6.331-5.608-32.02-32.02-32.02-84.154 0-116.14 1.94-1.974 4.011-3.774 6.198-5.504l34.956-27.484c-8.167-8.761-13.258-22.71-2.663-45.038 27.797-37.316 44.725-79.651 46.073-93.534 0 0 42.791-33.677 45.246-84.258 2.697-50.436-9.347-52.787-9.347-52.787 18.004-55.008 23.815-261.459-108.727-236.811-22.123-43.307-160.586-77.267-225.114 38.11-32.191 57.537-44.169 136.077-19.001 200.159-0.937 4.775-8.935-4.641-11.84 24.951-2.772 28.565 10.075 69.516 24.058 88.482 6.094 7.998 15.817 13.849 22.64 16.824 0 0 8.34 50.888 48.081 98.864 9.138 38.046-28.63 58.122-28.63 58.122-125.106 24.06-240.065 93.502-240.065 168.615v58.192c0 81.526 189.871 99.004 360.776 99.004 78.645 0 160.859-10.486 226.909-26.586 5.436-5.435 6.229-9.937 6.229-17.618z m0 0" fill="#D20015" p-id="42851"></path></svg>