<svg t="1736760180664" class="icon" viewBox="0 0 1024 1024" version="1.1" xmlns="http://www.w3.org/2000/svg" p-id="44807" width="200" height="200"><path d="M413.342 46.12c115.042 0 200.625 58.761 224.964 164.076 2.6 11.579 4.57 23.08 6.341 35.918l2.088 16.503 4.41 39.384 2.128 16.345a34.028 34.028 0 0 0 2.796 9.846l3.072 5.71a110.828 110.828 0 0 1-30.72 135.208l-2.718 2.009-0.393 0.945a34.068 34.068 0 0 1-63.016-25.127 59.077 59.077 0 0 1 23.63-30.996 42.338 42.338 0 0 0 12.958-50.058l-5.513-10.988a110.277 110.277 0 0 1-8.192-31.508l-0.985-7.444-3.938-35.446-2.56-21.583L576 247.1q-1.694-11.106-3.938-22.055c-16.66-72.035-73.453-111.026-158.563-110.986-85.15 0-141.785 38.951-158.602 110.986a270.848 270.848 0 0 0-3.938 22.055l-1.694 11.815-2.52 21.583-3.939 35.446-1.024 7.444a110.277 110.277 0 0 1-8.152 31.508l-5.475 10.988a42.3 42.3 0 0 0 12.918 50.058 60.337 60.337 0 0 1 24.261 32.335 107.717 107.717 0 0 0 36.076 54.784l6.026 4.608a88.773 88.773 0 0 1 35.446 67.387 114.215 114.215 0 0 1-57.107 117.484 320 320 0 0 1-46.75 23.63l-11.224 3.94-8.153 2.717-8.98 2.717-16.778 4.49-34.461 8.783-9.531 2.6-7.877 2.323-6.774 2.324-3.23 1.142c-25.718 9.216-39.384 21.78-43.323 40.409a237.41 237.41 0 0 0-3.938 95.35c2.638 16.03 9.885 24.851 17.723 26.466l2.639 0.276h289.87a34.068 34.068 0 0 1 3.939 67.899l-3.939 0.236h-289.87a91.845 91.845 0 0 1-87.592-83.81 303.852 303.852 0 0 1 4.608-120.557 119.847 119.847 0 0 1 78.77-87.315l11.106-4.175 7.444-2.56 7.876-2.481 9.335-2.639 44.465-11.422 13.47-3.938 7.246-2.245 6.656-2.402a230.99 230.99 0 0 0 42.22-20.638 46.238 46.238 0 0 0 24.222-50.767c-1.497-12.209-3.938-17.486-7.247-19.889a175.655 175.655 0 0 1-65.063-86.173l-1.97-6.144-2.402-1.773a110.828 110.828 0 0 1-30.68-135.247l3.032-5.71a34.028 34.028 0 0 0 2.796-9.846l2.167-16.345 4.41-39.385 2.088-16.502c1.772-12.84 3.939-24.379 6.341-35.919 24.34-105.314 109.922-164.194 224.965-164.076z" fill="#d81e06" p-id="44808"></path><path d="M750.277 762.25l109.135-153.01 18.392 72.744c0.552 2.442 5.435 3.545 10.87 2.048l83.417-21.386c5.238-1.3 9.177-4.49 8.428-7.128L923.53 430.71c-0.393-5.435-2.992-9.767-5.631-9.57l-233.039 18.747c-2.639 0-4.293 4.883-3.938 10.319l7.128 85.858c0.394 5.435 2.993 9.767 5.632 9.57l85.701-6.931L667.806 695.06l-106.85-77.627c-2.049-1.497-6.381 0.748-9.571 5.435l-20.441 28.514a0.59 0.59 0 0 0-0.394 0l-17.447 24.38-12.17 16.856c0 0.394-0.394 0.551-0.551 0.945L394.634 841.69c-1.497 2.048 0.945 6.38 5.435 9.57l70.301 49.861c4.49 3.19 9.374 3.938 10.87 1.89l99.762-139.854 107.047 77.627c2.048 1.496 6.38-0.945 9.768-5.238l50.451-69.947a10.949 10.949 0 0 0 2.048-3.388z" fill="#d81e06" p-id="44809"></path></svg>