<svg t="1736760286846" class="icon" viewBox="0 0 1098 1024" version="1.1" xmlns="http://www.w3.org/2000/svg" p-id="47623" width="200" height="200"><path d="M871.164207 986.074074a227.555556 227.555556 0 1 1 227.555556-227.555555 227.555556 227.555556 0 0 1-227.555556 227.555555z m92.918519-254.748444a71.566222 71.566222 0 0 1 0-42.287408 53.096296 53.096296 0 0 0-33.374815 33.829926A130.920296 130.920296 0 0 0 834.755319 606.814815c17.445926 19.342222-1.517037 72.855704-20.100741 91.894518a158.947556 158.947556 0 0 0-31.857778 59.202371 46.648889 46.648889 0 0 0-10.998519-24.158815C715.288652 880.64 841.581985 910.222222 841.581985 910.222222a53.854815 53.854815 0 0 1 0-70.125037 434.972444 434.972444 0 0 0 29.582222-55.599407c78.506667 76.8 41.339259 121.362963 41.33926 121.362963 123.259259-44.032 51.579259-174.573037 51.579259-174.573037z m-224.521482-256c-1.896296 4.475259-3.792593 8.533333-5.688888 12.818963a303.407407 303.407407 0 0 0-10.61926 535.286518L0.005689 1023.051852s-1.137778-136.267852 28.823704-164.408889 59.922963-127.317333 218.832592-150.300444 111.122963-105.054815 116.432593-102.4c-1.137778-31.099259-1.517037-24.38637-1.517037-24.386371a216.481185 216.481185 0 0 1-87.608889-104.106667c-51.2-20.176593-44.373333-33.109333-49.303704-59.164444 0 0-15.54963-105.585778 18.962963-103.424 0 0 18.962963 0 13.653333-24.234667-1.896296-40.429037-1.137778-116.129185 1.517037-143.056592S282.933096 47.93837 340.580504 37.129481a118.746074 118.746074 0 0 1 53.475555-3.185777c19.342222-2.692741 13.653333-18.356148 49.303704-18.356148l97.848889-15.473778c35.65037 0 83.057778 48.848593 102.020741 51.541333a354.910815 354.910815 0 0 1 63.715555 2.730667c57.268148 10.808889 53.096296 87.798519 56.130371 114.725926a642.996148 642.996148 0 0 1-1.137778 126.900148c-5.30963 24.234667 11.757037 18.962963 11.757037 18.962963 36.02963-0.530963 25.031111 106.192593 25.031111 106.192592-6.447407 27.041185-20.859259 30.340741-59.164445 54.120297z m283.685926 548.295111h-4.551111c1.517037-0.872296 3.034074-1.934222 4.551111-2.806519v2.806519z" fill="#d81e06" p-id="47624"></path></svg>