<svg t="1736760063620" class="icon" viewBox="0 0 1024 1024" version="1.1" xmlns="http://www.w3.org/2000/svg" p-id="44391" width="200" height="200"><path d="M449.217 959.244c-170.996 0-364.881-17.952-364.881-99.635v-57.9c0-76.298 116.241-144.964 243.254-170.993 21.093-10.325 32.763-32.763 30.068-56.1-24.683-29.623-41.738-64.631-49.815-102.33-8.975-4.04-16.606-9.426-23.787-16.606-17.057-25.583-25.133-55.652-23.788-86.174 3.591-30.963 10.772-20.192 12.566-25.133-22.887-66.872-15.257-140.474 20.197-201.515 65.076-116.241 205.105-81.682 226.648-38.148 134.643-25.133 129.258 183.564 110.856 239.218 0 0 12.566 0 9.426 52.51-3.59 33.208-19.747 63.731-45.329 85.273-8.976 34.109-25.133 65.971-47.125 93.349-4.936 8.08-6.731 17.952-5.385 27.378-26.483 41.739-40.394 90.213-39.944 140.029 0 81.683 37.699 158.881 102.33 208.696-49.37 3.59-102.33 8.975-156.186 8.975l0.895-0.894z m0 0" fill="#D20015" p-id="44392"></path><path d="M742.664 957.5c-108.624 0-197-88.372-197-197 0-108.624 88.376-197 197-197 108.628 0 197 88.376 197 197 0 108.628-88.371 197-197 197z m0-348.465c-83.516 0-151.465 67.949-151.465 151.465 0 83.52 67.949 151.469 151.465 151.469 83.52 0 151.469-67.949 151.469-151.469 0-83.516-67.949-151.465-151.469-151.465z" fill="#D20015" p-id="44393"></path><path d="M723.551 651.92h35.526v138.811h-35.526z" fill="#D20015" p-id="44394"></path><path d="M723.551 755.206h123.595v35.526H723.551z" fill="#D20015" p-id="44395"></path></svg>