<svg t="1736760107759" class="icon" viewBox="0 0 1024 1024" version="1.1" xmlns="http://www.w3.org/2000/svg" p-id="44552" width="200" height="200"><path d="M458.752 918.528c-34.019556 0-67.584 2.616889-101.148444-0.455111a5645.596444 5645.596444 0 0 1-227.555556-26.624c-31.459556-4.039111-36.124444-10.695111-41.244444-41.870222-6.257778-36.807111-3.640889-73.102222 4.096-109.340445 7.224889-33.223111 32.540444-51.655111 62.976-62.350222 27.306667-10.24 56.263111-16.896 84.081777-27.079111 16.497778-5.688889 32.028444-13.824 46.990223-22.528 30.435556-17.863111 43.349333-44.942222 39.253333-80.213333-2.104889-16.327111-6.769778-31.687111-20.707556-41.415112-26.282667-18.375111-40.732444-43.918222-49.493333-74.069333a24.632889 24.632889 0 0 0-9.329778-12.288 72.248889 72.248889 0 0 1-21.617778-95.004444c4.096-7.168 6.144-16.384 7.168-24.576 4.664889-33.223111 6.257778-67.413333 13.425778-99.612445 20.650667-87.893333 90.282667-142.108444 181.646222-144.099555a252.359111 252.359111 0 0 1 110.933334 22.471111c49.493333 21.447111 81.521778 58.766222 95.459555 109.852444 7.224889 27.079111 11.889778 55.182222 15.985778 82.773334 3.128889 21.504 2.104889 42.439111 13.937778 63.886222 15.473778 27.591111 0 66.446222-26.282667 85.333333-7.224889 5.12-10.353778 15.872-13.425778 24.519111-3.128889 8.704-7.224889 14.848-16.497777 18.944-169.301333 77.653333-238.933333 276.48-154.851556 441.002667 2.104889 4.551111 4.152889 9.216 6.257778 12.743111z" p-id="44553" fill="#d81e06"></path><path d="M706.446222 506.140444c-127.431111 0-232.675556 104.277333-232.675555 230.968889 0 127.260444 104.675556 230.513778 232.675555 230.001778 128.512 0 232.220444-102.741333 232.220445-230.456889 0-126.748444-104.220444-230.513778-232.220445-230.513778z m-26.851555 330.126223l-106.268445-105.244445 32.995556-32.711111 73.272889 72.533333 126.464-125.155555 32.995555 32.711111-159.459555 157.866667z" p-id="44554" fill="#d81e06"></path></svg>