<svg t="1740212164494" class="icon" viewBox="0 0 1111 1024" version="1.1" xmlns="http://www.w3.org/2000/svg" p-id="8749" width="200" height="200"><path d="M784.340426 272.340426v65.361702H522.893617v-65.361702zM784.340426 403.06383v65.361702H522.893617v-65.361702zM784.340426 533.787234v65.361702H522.893617v-65.361702z" fill="#515151" p-id="8750"></path><path d="M185.191489 773.446809V915.06383h442.062979v65.361702H119.829787v-206.978723h65.361702zM969.531915 0v552.611404h-65.361702V65.361702h-718.978724v141.617021h-65.361702V0h849.702128z" fill="#515151" p-id="8751"></path><path d="M435.744681 206.978723v566.468086H0v-566.468086h435.744681zM174.602894 387.006638H94.970553l73.401192 112.008171L87.628255 620.93617h80.74349l46.276085-75.165957 46.123574 75.165957h81.222809l-79.632341-120.635915 72.769362-113.293617h-78.826213l-40.219234 71.963234-41.482893-71.963234zM936.851064 620.93617l163.404255 239.659575h-130.723404V1024h-65.361702v-163.404255h-130.723404l163.404255-239.659575z" fill="#515151" p-id="8752"></path></svg>