<svg t="1736761184292" class="icon" viewBox="0 0 1024 1024" version="1.1" xmlns="http://www.w3.org/2000/svg" p-id="51906" width="200" height="200"><path d="M869.4 988.2H731.1c-41.4 0-80-16.1-108.7-45.2-28.4-28.8-44-66.9-44-107.4V697.2c0-41.4 16.1-80 45.2-108.7 28.8-28.4 66.9-44 107.4-44h138.4c41.4 0 80 16.1 108.7 45.2 28.4 28.8 44 66.9 44 107.4v138.4c0 41.4-16.1 79.9-45.2 108.7-28.8 28.4-67 44-107.5 44zM731.1 560.6c-75.3 0-136.7 61.3-136.7 136.7v138.4c0 75.3 61.3 136.6 136.7 136.6h138.4c75.3 0 136.6-61.3 136.6-136.6V697.2c0-75.3-61.3-136.7-136.6-136.7H731.1z" fill="#dd6d24" p-id="51907"></path><path d="M633.3 987.5H6.7s-25.6-74.9 42-126c25.6-20.1 73.1-38.4 102.3-51.2 71.2-31.1 85.9-34.7 122.4-62.1 32.9-25.6 82.2-98.6 20.1-177.2-73.1-93.2-80.4-235.7-62.1-348.9C249.6 110.7 355.6 35.8 465.2 35.8c109.6 0 215.6 74.9 233.8 186.3 12.7 79.5 14.4 175.5-13.1 256.9-6.6 19.6-19.2 36.6-36.1 48.4-6.3 4.4-12.3 9.2-18.4 14.4-67.6 54.8-107.8 135.2-107.8 222.8 1.9 87.7 42.1 168.1 109.7 222.9z" fill="#dd6d24" p-id="51908"></path><path d="M948.4 784.6v-37.1l-44.1-7.2c-2.6-10.4-6.7-20.2-12.1-29.2l25.7-36.6-26.2-26.2-36.1 26c-9-5.5-18.9-9.6-29.4-12.2l-7.7-43.9h-37l-7.1 43.7c-10.5 2.6-20.5 6.7-29.5 12.1l-36-25.7-26.2 26.2 25.4 36.3c-5.5 9.1-9.7 19-12.3 29.6l-43.5 7.2v37.1l43.5 7.7c2.6 10.6 6.8 20.5 12.3 29.6l-25.7 35.9 26.2 26.2 36.3-25.4c9.1 5.4 19 9.6 29.5 12.2l7.3 43.8h37.1l7.8-43.9c10.3-2.6 20.2-6.7 29.3-12.3l36.5 25.7 26.2-26.2-26.1-36.2c5.4-9 9.5-18.8 12.1-29.3l43.8-7.9z m-148.1 33.5c-28.5 0-51.7-23.1-51.7-51.7 0-28.5 23.1-51.6 51.7-51.6 28.5 0 51.6 23.1 51.6 51.6 0 28.6-23.1 51.7-51.6 51.7z m0 0" fill="#dd6d24" p-id="51909"></path></svg>